<?xml version="1.0" encoding="UTF-8"?>
<svg id="Ebene_2" data-name="Ebene 2" xmlns="http://www.w3.org/2000/svg" viewBox="0 0 236.38 303.22">
  <defs>
    <style>
      .cls-1 {
        fill: #0f0c0b;
      }

      .cls-2 {
        fill: #e03616;
      }

      @media (prefers-color-scheme: dark) {
        .cls-1 {
          fill: #f7f5eb;
        }
      }
    </style>
  </defs>
  <g id="Ebene_1-2" data-name="Ebene 1">
    <g>
      <path class="cls-1" d="M202.1,303.22l-91.69-158.07c-17.26,8.41-36.46,10.06-54.66,5.02C23.94,141.35,1.24,112.74.07,79.69c-.87-20.46,6.25-40.18,20.08-55.12C35.77,7.71,57.81-1.28,80.7.15c39.13,1.84,70.49,33.55,72.18,72.61,1.01,23.38-8.06,45.8-26.24,61.59l63.19,84.27,46.55,61.95-34.28,22.65ZM145.08,76.47c0-37.89-30.72-68.61-68.61-68.61S7.87,38.58,7.87,76.47s30.72,68.61,68.61,68.61,68.61-30.72,68.61-68.61Z"/>
      <g>
        <path class="cls-1" d="M113.82,62.39c-7.6-5.73-15.25-10.62-24.11-13.6-27.31-9.2-50.97,4.53-71.94,21.34-1.5,1.2-2.76,2.05-4.99,3.03,1.26-3.55,3.42-6,5.81-8.7,12.79-14.46,32.47-26.04,51.8-28,6.76-.68,13.26.32,19.94,1.78,15.36,3.34,29.36,9.96,42.63,18.23,2.63,1.64,4.95,3.33,6.9,5.63s1.67,5.57-.55,7.73c-1.83,1.79-4.44,3.47-7.16,4.12-1.36.32-4.18-.88-5.32-1.74l-13.01-9.81Z"/>
        <path class="cls-1" d="M76.61,114.36c-5.25-.27-11.78-1.61-10.39-2.42l1.13-.66c9.12-.13,17.87-.73,26.83-2.11,11.58-2.39,22.56-6.37,29.4-16.15l4.59-6.56c.5-.72,2.73-1.2,3.26-.49,3.5,12.08-7.89,20.75-19.27,24.09s-23.44,4.92-35.55,4.29Z"/>
        <g>
          <path class="cls-1" d="M92.73,99.01c-11.51,9.49-28.98,8.57-39.13-1.96s-9.22-27.5,2.34-36.81c10.68-8.6,26.38-8.52,36.91.25,12.16,10.12,12.31,28.27-.13,38.53ZM80.92,82.58c1.54-2.11,1.7-5.01.69-7.33-1.68-3.86-7.44-6.08-12.24-2.76-1.93,1.33-3.26,3.88-2.92,6.61.41,3.28,3.19,5.81,5.85,6.39,3.19.7,6.61-.14,8.63-2.91Z"/>
          <path class="cls-2" d="M80.92,82.58c-2.02,2.76-5.44,3.61-8.63,2.91-2.66-.58-5.44-3.11-5.85-6.39-.34-2.72.99-5.28,2.92-6.61,4.8-3.32,10.57-1.1,12.24,2.76,1.01,2.32.85,5.23-.69,7.33Z"/>
        </g>
      </g>
    </g>
  </g>
</svg>